# xmcd CD database file
#
# Track frame offsets:
#	150
#	21135
#	43474
#	64457
#
# Disc length: 1159 seconds
#
# Revision: 1
# Processed by: cddbd v1.5.1PL0 Copyright (c) Steve Scherf et al.
# Submitted via: CDex 1.51
#
DISCID=38048504
DTITLE=TOMOYASU HOTEI - IDENTITY
DYEAR=2005
DGENRE=J-Rock
TTITLE0=IDENTITY
TTITLE1=NO MORE GIMMICK
TTITLE2=IDENTITY[instrumental]
TTITLE3=NO MORE GIMMICK[instrumental]
EXTD=YEAR: 2005
EXTT0=
EXTT1=
EXTT2=
EXTT3=
PLAYORDER=
